<!DOCTYPE svg PUBLIC "-//W3C//DTD SVG 1.1//EN" "http://www.w3.org/Graphics/SVG/1.1/DTD/svg11.dtd">
<!-- Uploaded to: SVG Repo, www.svgrepo.com, Transformed by: SVG Repo Mixer Tools -->
<svg height="256px" width="256px" version="1.1" id="Layer_1" xmlns="http://www.w3.org/2000/svg" xmlns:xlink="http://www.w3.org/1999/xlink" viewBox="-51.2 -51.2 614.40 614.40" xml:space="preserve" fill="#000000">
<g id="SVGRepo_bgCarrier" stroke-width="0" transform="translate(0,0), scale(1)"/>
<g id="SVGRepo_tracerCarrier" stroke-linecap="round" stroke-linejoin="round" stroke="#CCCCCC" stroke-width="19.456"/>
<g id="SVGRepo_iconCarrier"> <circle style="fill:#FF7069;" cx="256" cy="256" r="256"/> <path style="fill:#FFE356;" d="M255.818,70.514c101.489,0,184.028,81.628,185.486,182.935l20.772-16.399 c2.915-2.186,7.106-1.822,9.293,1.093l0,0c2.186,2.915,1.822,7.106-1.093,9.293l-31.34,24.598c-1.275,1.093-2.915,1.458-4.373,1.458 s-3.098-0.364-4.373-1.458l-31.34-24.598c-2.915-2.186-3.462-6.377-1.093-9.293l0,0c2.186-2.915,6.377-3.462,9.293-1.093 l18.767,14.759c-2.186-92.014-77.438-165.808-169.999-165.808c-86.548,0-157.791,64.501-168.723,148.134 c-2.915-1.64-6.195-2.551-9.475-2.551c-2.004,0-3.826,0.182-5.831,0.911C83.451,141.21,161.435,70.696,255.818,70.696V70.514z M41.907,264.199l31.34-24.598c1.275-1.093,2.915-1.458,4.373-1.458c1.458,0,3.098,0.364,4.373,1.458l31.34,24.598 c2.915,2.186,3.462,6.377,1.093,9.293l0,0c-2.186,2.915-6.377,3.462-9.293,1.093l-19.314-15.123 c1.822,92.379,77.256,166.537,169.999,166.537c86.548,0,157.973-64.683,168.723-148.316c2.915,2.004,6.559,2.915,10.021,2.915 c1.822,0,3.462-0.182,5.102-0.729c-11.661,91.103-89.646,161.617-183.846,161.617c-101.489,0-184.028-81.628-185.486-182.753 l-20.225,15.852c-2.915,2.186-7.106,1.822-9.293-1.093l0,0C38.628,270.577,38.992,266.386,41.907,264.199z"/> <path style="fill:#FFFFFF;" d="M256,136.29c32.979,0,63.043,13.483,84.726,34.984c21.683,21.683,34.984,51.564,34.984,84.726 c0,32.979-13.483,63.043-34.984,84.726C319.043,362.409,289.162,375.71,256,375.71c-32.979,0-63.043-13.483-84.726-34.984 C149.591,319.043,136.29,289.162,136.29,256c0-32.979,13.483-63.043,34.984-84.726C192.957,149.591,222.838,136.29,256,136.29z M319.954,169.452c-3.826,2.369-7.835,4.737-12.026,6.559c0.729,0.729,1.458,1.64,2.186,2.369 c5.466,6.377,10.204,13.301,14.212,20.772c6.377-2.186,12.39-4.737,18.038-7.47c-3.098-4.191-6.559-8.199-10.204-11.843 C328.336,176.011,324.327,172.549,319.954,169.452z M296.085,181.113c-4.555,1.64-9.293,2.915-14.03,4.009 c0.911,2.915,1.64,5.648,2.369,8.564c1.275,4.737,2.369,9.657,3.28,14.577c8.564-1.275,16.945-3.098,24.78-5.284 c-3.28-5.831-7.288-11.479-11.661-16.581C299.365,184.575,297.725,182.753,296.085,181.113z M269.848,187.126 c-4.555,0.547-9.11,0.729-13.848,0.729s-9.293-0.182-13.848-0.729c-0.911,3.098-1.822,6.377-2.733,9.657 c-1.093,4.191-2.004,8.564-2.915,12.937c6.377,0.547,12.754,0.911,19.314,0.911s12.937-0.364,19.314-0.911 c-0.911-4.373-1.822-8.746-2.915-12.937c-0.911-3.28-1.64-6.377-2.733-9.657H269.848z M230.127,185.122 c-4.737-1.093-9.475-2.369-14.03-4.009c-1.64,1.64-3.28,3.462-4.737,5.284c-4.373,5.102-8.199,10.75-11.661,16.581 c8.017,2.186,16.216,4.009,24.78,5.284c0.911-4.92,2.004-9.839,3.28-14.577C228.487,190.77,229.216,187.855,230.127,185.122z M204.071,176.194c-4.191-2.004-8.199-4.191-12.026-6.559c-4.373,3.098-8.381,6.742-12.208,10.386 c-3.644,3.644-7.106,7.653-10.204,11.843c5.831,2.733,11.843,5.284,18.038,7.47c4.009-7.47,8.746-14.394,14.212-20.772 C202.614,177.833,203.342,176.922,204.071,176.194z M203.525,162.164c3.098,1.822,6.377,3.462,9.839,4.92 c7.47-6.742,15.852-12.39,24.78-16.945c-12.39,2.004-24.051,6.195-34.619,12.208V162.164z M226.483,171.638 c2.369,0.729,4.92,1.275,7.47,1.822c1.093-3.28,2.369-6.377,3.644-9.657C233.771,166.172,229.944,168.723,226.483,171.638z M246.161,175.283c3.28,0.364,6.559,0.364,9.839,0.364c3.28,0,6.559-0.182,9.839-0.364c-2.369-6.559-5.102-12.754-8.017-18.767 l-1.275-1.458l-0.364-0.182l-0.547,0.182l-1.093,1.275c-2.915,6.013-5.648,12.208-8.017,18.767L246.161,175.283z M278.047,173.46 c2.551-0.547,4.92-1.093,7.47-1.822c-3.462-2.733-7.288-5.466-11.115-7.835C275.678,166.901,276.954,170.181,278.047,173.46z M298.636,166.901c3.28-1.458,6.559-3.098,9.839-4.92c-10.568-5.831-22.229-10.021-34.619-12.208 c9.11,4.555,17.31,10.386,24.78,16.945V166.901z M348.925,201.885c-6.195,3.098-12.754,5.831-19.678,8.381 c5.102,12.39,8.199,25.873,8.928,39.903h25.145c-0.911-17.492-6.013-33.89-14.394-48.102V201.885z M317.768,213.91 c-9.11,2.733-18.585,4.737-28.424,6.195c1.275,9.657,2.186,19.678,2.369,29.882h34.255 C325.238,237.233,322.323,225.025,317.768,213.91z M277.318,221.563c-6.924,0.729-14.03,0.911-21.318,0.911 c-7.288,0-14.394-0.364-21.318-0.911c-1.275,9.293-2.004,18.767-2.369,28.424h47.191c-0.182-9.657-0.911-19.132-2.369-28.424 H277.318z M222.474,220.105c-9.839-1.458-19.314-3.462-28.424-6.195c-4.737,11.115-7.653,23.322-8.199,36.077h34.255 C220.288,239.784,221.199,229.762,222.474,220.105z M182.571,210.084c-6.742-2.369-13.301-5.284-19.678-8.381 c-8.382,14.212-13.483,30.611-14.394,48.102h25.144c0.729-14.03,3.826-27.513,8.928-39.903V210.084z M342.184,319.954 c-5.831-2.733-11.843-5.284-18.221-7.47c-4.009,7.288-8.746,14.212-14.03,20.589c-0.729,0.911-1.458,1.64-2.186,2.551 c4.191,2.004,8.199,4.191,12.026,6.742c4.373-3.098,8.382-6.742,12.208-10.386c3.644-3.644,7.106-7.653,10.204-11.843V319.954z M312.12,308.658c-8.017-2.186-16.216-4.009-24.78-5.284c-0.911,4.92-2.004,9.839-3.28,14.577c-0.729,2.915-1.458,5.831-2.369,8.564 c4.737,1.093,9.475,2.369,14.03,4.009c1.64-1.822,3.28-3.462,4.92-5.466C305.014,319.954,308.84,314.488,312.12,308.658z M275.132,301.916c-6.377-0.547-12.754-0.911-19.314-0.911s-12.937,0.364-19.314,0.911c0.911,4.373,1.822,8.746,2.915,12.937 c0.911,3.28,1.64,6.377,2.733,9.657c4.555-0.547,9.11-0.729,13.848-0.729s9.293,0.182,13.848,0.729 c0.911-3.098,1.822-6.377,2.733-9.657c1.093-4.191,2.004-8.564,2.915-12.937H275.132z M224.296,303.374 c-8.564,1.275-16.763,3.098-24.78,5.284c3.28,5.831,7.106,11.297,11.479,16.399c1.64,1.822,3.28,3.644,4.92,5.466 c4.555-1.64,9.11-2.915,14.03-4.009c-0.911-2.915-1.64-5.648-2.369-8.564C226.3,313.213,225.207,308.293,224.296,303.374z M187.673,312.302c-6.377,2.186-12.39,4.737-18.221,7.47c3.098,4.191,6.559,8.199,10.204,11.843 c3.826,3.826,7.835,7.288,12.208,10.386c3.826-2.369,7.835-4.737,12.026-6.742c-0.729-0.911-1.458-1.64-2.186-2.551 c-5.284-6.377-10.021-13.301-14.03-20.589V312.302z M162.71,309.569c6.195-3.098,12.754-5.831,19.678-8.382 c-5.102-12.39-8.199-25.691-8.928-39.903h-25.144c0.911,17.492,6.013,33.89,14.394,48.102V309.569z M194.05,297.543 c9.11-2.551,18.585-4.737,28.242-6.195c-1.275-9.657-2.186-19.678-2.369-29.882h-34.255 C186.397,274.221,189.312,286.428,194.05,297.543z M234.5,289.89c6.924-0.729,14.03-0.911,21.318-0.911s14.394,0.364,21.318,0.911 c1.275-9.293,2.004-18.767,2.369-28.424h-47.191c0.182,9.657,0.911,19.132,2.369,28.424H234.5z M289.344,291.348 c9.839,1.458,19.314,3.462,28.242,6.195c4.737-11.115,7.653-23.322,8.382-36.077h-34.255 C291.53,271.67,290.619,281.691,289.344,291.348z M329.247,301.369c6.924,2.369,13.483,5.284,19.678,8.382 c8.382-14.212,13.483-30.611,14.394-48.102h-25.145c-0.729,14.03-3.826,27.513-8.928,39.903V301.369z M308.293,349.654 c-3.098-1.822-6.377-3.462-9.839-4.92c-7.288,6.559-15.488,12.39-24.416,16.945C286.246,359.675,297.907,355.485,308.293,349.654z M285.153,339.997c-2.369-0.729-4.92-1.275-7.288-1.822c-1.093,3.098-2.369,6.377-3.644,9.475 C278.047,345.281,281.691,342.73,285.153,339.997z M265.475,336.353c-3.28-0.364-6.559-0.364-9.839-0.364 c-3.28,0-6.559,0.182-9.839,0.364c2.551,6.924,5.466,13.483,8.564,19.678l1.275,0.547l1.275-0.547 C260.009,349.836,262.924,343.277,265.475,336.353z M233.589,338.175c-2.551,0.547-4.92,1.093-7.288,1.822 c3.462,2.733,7.106,5.284,10.932,7.653C235.957,344.552,234.682,341.455,233.589,338.175z M212.999,344.735 c-3.462,1.458-6.742,3.098-9.839,4.92c10.386,5.831,22.047,10.021,34.255,12.026C228.487,357.125,220.288,351.294,212.999,344.735z"/> </g>
</svg>